<?xml version="1.0" standalone="no"?>
<!DOCTYPE svg PUBLIC "-//W3C//DTD SVG 20010904//EN"
 "http://www.w3.org/TR/2001/REC-SVG-20010904/DTD/svg10.dtd">
<svg version="1.0" xmlns="http://www.w3.org/2000/svg"
 width="980.000000pt" height="980.000000pt" viewBox="0 0 980.000000 980.000000"
 preserveAspectRatio="xMidYMid meet">
<metadata>
Created by potrace 1.11, written by Peter Selinger 2001-2013
</metadata>
<g transform="translate(0.000000,980.000000) scale(0.100000,-0.100000)"
fill="#000000" stroke="none">
<path d="M0 4900 l0 -4900 4900 0 4900 0 0 4900 0 4900 -4900 0 -4900 0 0
-4900z m4919 3866 c-2 -3 -38 -16 -79 -30 -41 -14 -67 -26 -58 -26 31 0 8 -29
-29 -36 -19 -4 -37 -13 -40 -20 -3 -7 -20 -16 -39 -20 -19 -3 -34 -12 -34 -20
0 -7 -18 -18 -41 -24 -22 -6 -43 -18 -46 -26 -3 -7 -10 -14 -17 -14 -15 0
-121 -43 -138 -56 -7 -6 -31 -19 -53 -30 l-40 -19 33 -3 c18 -2 54 3 80 12 26
8 62 18 80 21 18 4 38 12 45 19 6 7 27 16 46 19 l34 7 -24 -19 c-13 -10 -34
-21 -45 -25 -12 -4 -32 -15 -44 -26 -12 -10 -27 -17 -35 -14 -15 6 -115 -25
-115 -36 0 -4 -11 -11 -25 -14 -14 -4 -25 -11 -25 -16 0 -13 47 -13 55 0 3 6
17 10 31 10 13 0 49 9 79 19 30 11 55 16 55 13 0 -4 -19 -13 -42 -20 -22 -7
-51 -20 -62 -28 -19 -14 -17 -15 29 -8 28 4 52 10 55 14 3 4 38 15 79 24 67
15 76 15 90 1 14 -13 13 -15 -6 -15 -11 0 -26 -7 -33 -15 -7 -8 -22 -15 -33
-15 -17 0 -18 3 -9 13 7 6 27 18 45 24 l32 13 -35 -6 c-19 -4 -39 -9 -45 -12
-5 -4 -14 -7 -20 -8 -31 -4 -56 -18 -51 -30 6 -15 -10 -29 -44 -39 -14 -4 -31
-12 -38 -18 -20 -16 6 -28 48 -22 19 3 28 2 20 -2 -26 -14 -75 -47 -83 -58 -6
-7 -10 -6 -14 3 -7 17 -18 15 -61 -11 -20 -13 -42 -22 -49 -20 -6 2 -17 -4
-25 -14 -7 -10 -29 -26 -48 -36 l-35 -17 31 0 c16 0 39 7 50 15 21 16 44 20
44 7 0 -4 -17 -14 -37 -21 -21 -7 -51 -18 -68 -26 -60 -26 -131 -54 -155 -61
-13 -4 -30 -13 -38 -20 -7 -8 -25 -14 -39 -14 -14 0 -36 -9 -50 -20 -14 -11
-34 -20 -44 -20 -11 0 -19 -7 -19 -15 0 -9 -9 -15 -24 -15 -14 0 -28 -4 -31
-10 -3 -5 -19 -10 -35 -10 -16 0 -59 -16 -94 -35 -36 -19 -72 -35 -79 -35 -8
0 -20 -7 -27 -16 -18 -20 -90 -55 -102 -48 -5 3 -29 -4 -54 -15 -32 -16 -44
-27 -42 -39 4 -18 9 -19 46 -7 18 5 22 2 22 -14 0 -11 -9 -22 -20 -26 -23 -7
-27 -56 -8 -102 6 -15 12 -39 14 -53 2 -23 24 -111 44 -185 13 -45 29 -258 34
-450 2 -93 7 -181 9 -195 19 -96 30 -470 29 -1035 0 -495 -9 -732 -30 -840 -6
-27 -14 -88 -18 -135 -3 -47 -11 -96 -17 -110 -6 -14 -11 -45 -12 -70 -2 -52
-32 -122 -78 -185 -4 -5 -20 -29 -36 -53 -27 -42 -70 -97 -121 -152 -14 -15
-33 -39 -43 -53 -10 -14 -37 -38 -60 -54 -23 -15 -44 -30 -47 -33 -8 -9 -84
-64 -105 -77 -87 -52 -125 -71 -160 -77 -22 -4 -65 -20 -95 -35 -50 -26 -70
-30 -225 -40 -140 -9 -183 -9 -244 3 -40 8 -78 19 -84 25 -6 6 -25 11 -42 11
-34 0 -106 19 -175 46 -25 9 -79 29 -120 43 -59 21 -78 32 -88 54 -8 16 -31
36 -58 48 -24 12 -44 24 -44 28 0 4 -35 25 -77 47 -43 21 -80 41 -83 44 -3 3
-27 21 -55 40 -27 19 -59 42 -69 52 -11 10 -26 18 -33 18 -7 0 -13 5 -13 10 0
6 -11 15 -25 20 -14 5 -25 14 -25 20 0 5 -6 10 -14 10 -15 0 -66 58 -66 75 0
6 -9 18 -20 28 -11 9 -20 29 -20 43 0 18 -20 49 -65 99 -36 40 -65 77 -65 83
0 6 -3 12 -7 14 -17 7 -53 68 -53 89 0 23 -43 114 -66 140 -8 8 -14 20 -14 25
0 6 -20 43 -45 83 -25 40 -45 75 -45 78 0 3 -9 16 -20 30 -11 14 -20 38 -20
53 0 15 -8 38 -17 51 -26 35 -40 59 -66 109 -34 65 -48 88 -89 147 -21 29 -38
57 -38 63 0 5 -4 10 -9 10 -10 0 -53 82 -46 89 3 2 17 -6 31 -20 20 -19 27
-21 34 -9 5 8 5 21 -1 31 -12 24 -12 26 10 32 19 5 53 -28 153 -147 18 -21 65
-73 104 -115 39 -42 79 -89 90 -106 45 -71 98 -124 271 -270 25 -22 68 -59 93
-82 26 -24 50 -43 54 -43 4 0 34 -20 66 -45 32 -25 63 -45 69 -45 6 0 11 -4
11 -10 0 -5 11 -12 24 -16 14 -3 31 -16 39 -27 8 -12 32 -31 53 -42 22 -11 62
-37 89 -57 28 -21 64 -41 82 -44 18 -3 37 -12 43 -19 6 -8 24 -17 40 -20 16
-3 34 -13 41 -21 6 -8 17 -14 23 -14 7 0 29 -9 51 -20 106 -54 245 -68 386
-40 141 29 224 85 303 205 85 128 115 291 136 735 6 135 15 310 19 390 11 206
4 1536 -8 1583 -9 38 -21 60 -21 41 0 -6 -28 -16 -62 -23 -70 -15 -156 -48
-176 -68 -7 -7 -18 -13 -23 -13 -5 0 -18 -9 -29 -20 -12 -12 -25 -18 -31 -14
-18 11 -113 -19 -149 -47 -19 -15 -55 -33 -80 -40 -25 -7 -51 -19 -58 -26 -7
-7 -19 -13 -26 -13 -7 0 -21 -9 -31 -20 -10 -11 -25 -20 -34 -20 -9 0 -29 -7
-44 -15 -16 -8 -50 -21 -75 -29 -83 -26 -136 -47 -207 -80 -38 -18 -110 -45
-160 -60 -49 -15 -110 -33 -135 -41 -25 -8 -74 -19 -110 -26 -36 -7 -69 -15
-75 -19 -5 -4 -41 -10 -78 -14 -38 -4 -88 -13 -110 -21 -47 -16 -217 -21 -217
-5 0 5 -16 12 -36 16 -19 4 -38 13 -41 20 -3 8 -14 14 -24 14 -10 0 -38 18
-61 40 -24 21 -60 55 -81 73 -20 19 -37 37 -37 40 0 3 -17 24 -37 46 -76 81
-125 159 -128 201 -1 14 -5 32 -9 42 -5 11 -2 17 9 20 15 3 15 6 -4 30 -28 35
-28 62 0 55 17 -5 20 -2 16 13 -4 15 -1 17 22 10 38 -10 52 -2 45 26 -4 15 -2
24 5 24 15 0 14 37 -1 47 -7 4 -19 15 -26 24 -12 15 -10 16 22 5 20 -7 39 -15
42 -19 11 -11 54 -8 54 3 0 7 6 7 19 0 11 -5 35 -10 53 -10 34 0 197 35 233
50 11 4 47 15 80 23 33 8 92 24 130 35 39 12 97 28 130 37 33 9 74 22 90 29
17 8 46 17 65 21 19 4 41 11 50 16 13 8 97 37 275 95 28 9 59 20 70 25 25 11
128 47 175 60 19 5 44 14 55 19 30 14 283 97 335 110 25 6 59 17 75 25 17 7
47 16 68 20 20 4 37 11 37 15 0 4 26 13 57 20 31 7 64 16 73 21 8 4 62 22 120
40 58 17 119 37 135 44 17 7 46 16 65 20 19 4 40 11 45 15 6 4 26 11 45 15 19
4 49 13 65 20 51 22 97 35 124 35 15 0 31 4 36 8 6 5 37 15 70 22 33 7 85 21
116 31 30 11 65 19 77 19 12 0 22 4 22 8 0 4 28 14 63 21 34 8 67 17 72 22 6
4 33 13 60 20 28 7 59 18 70 26 11 7 28 13 39 13 10 0 76 18 145 41 69 23 153
49 186 59 71 21 213 63 310 92 39 12 96 29 127 39 32 11 68 19 82 19 14 0 27
4 31 9 3 5 31 15 63 21 31 7 64 16 72 20 14 8 28 5 19 -4z m3968 -368 c18 -13
33 -28 33 -35 0 -6 8 -18 18 -25 10 -7 28 -28 41 -45 22 -32 41 -43 41 -24 0
5 -7 17 -16 25 -13 14 -14 16 0 16 8 0 18 -4 21 -10 3 -5 14 -10 24 -10 10 0
24 -6 30 -14 11 -12 75 -32 93 -28 16 4 89 -83 95 -112 3 -17 9 -33 13 -36 4
-3 10 -45 14 -95 4 -49 10 -107 15 -127 5 -20 7 -39 4 -42 -3 -2 -6 -28 -7
-56 -2 -31 -8 -55 -17 -60 -7 -5 -14 -28 -16 -52 -1 -24 -6 -74 -11 -113 -8
-61 -10 -44 -12 130 -1 110 -4 193 -6 185 -10 -46 -17 -648 -18 -1486 -1 -891
-2 -952 -18 -968 -10 -10 -18 -32 -19 -49 0 -18 -2 -57 -3 -87 -1 -30 2 -63 6
-73 5 -9 10 -165 12 -345 2 -252 6 -335 17 -361 11 -27 11 -35 2 -38 -9 -3
-13 -28 -13 -75 0 -61 2 -69 15 -58 8 7 15 19 15 26 0 8 4 14 8 14 5 0 9 -50
10 -112 1 -99 0 -109 -13 -92 -8 10 -15 25 -15 32 0 6 -4 12 -9 12 -6 0 -7
-31 -4 -72 l5 -73 -28 -11 c-42 -15 -54 -7 -54 37 0 21 -4 39 -10 39 -5 0 -10
-18 -10 -40 0 -38 -19 -59 -21 -22 0 13 -2 14 -6 2 -8 -19 -35 -40 -45 -34 -5
3 -8 13 -8 23 0 10 -7 24 -15 31 -13 11 -15 5 -15 -43 0 -46 -4 -58 -20 -67
-20 -10 -60 5 -60 22 0 5 -7 8 -16 8 -9 0 -22 7 -29 17 -13 18 -35 10 -35 -13
0 -8 -7 -14 -15 -14 -8 0 -15 -7 -15 -15 0 -8 -4 -15 -10 -15 -5 0 -10 7 -10
16 0 22 -29 48 -54 48 -33 0 -80 30 -95 62 -8 16 -17 31 -20 34 -4 3 -21 28
-39 55 -18 28 -43 63 -57 80 -14 16 -25 36 -25 43 0 8 -11 28 -26 44 -14 17
-28 44 -31 60 -3 18 -15 34 -29 40 -13 6 -24 15 -24 20 0 4 -8 16 -17 26 -10
11 -26 31 -37 45 -10 15 -27 29 -37 32 -11 4 -19 10 -19 15 0 4 18 0 40 -11
41 -20 80 -25 80 -10 0 5 -24 30 -52 57 -29 26 -44 43 -33 37 94 -46 129 -62
133 -59 2 2 -1 14 -8 25 -8 16 -8 21 2 21 7 0 -3 13 -22 30 l-35 30 44 -15
c24 -9 49 -19 55 -24 6 -4 29 -13 51 -18 22 -6 48 -14 58 -18 13 -5 17 -2 17
13 0 12 4 23 9 26 13 8 14 243 1 251 -6 4 -10 58 -11 138 -1 85 -4 123 -9 107
-5 -14 -7 172 -4 413 l4 437 -52 0 c-29 0 -67 -4 -84 -9 -17 -5 -111 -14 -210
-20 -98 -7 -200 -16 -226 -21 -26 -5 -100 -10 -165 -10 -65 0 -175 -3 -244 -7
l-126 -6 -6 -119 c-4 -67 -3 -127 2 -137 6 -10 5 -33 -2 -59 -9 -33 -9 -45 0
-50 9 -6 8 -31 -4 -102 -11 -66 -13 -95 -5 -98 8 -2 8 -11 1 -29 -15 -41 -23
-569 -9 -578 7 -4 17 -1 22 6 7 10 8 7 3 -11 -24 -93 -28 -148 -16 -193 8 -26
17 -44 22 -41 5 3 9 -8 9 -25 0 -23 4 -29 15 -25 8 4 16 14 16 23 1 14 2 14 6
-1 2 -10 8 -18 13 -18 5 0 11 8 13 18 6 22 10 -69 7 -178 -2 -88 -7 -110 -17
-72 -3 12 -11 22 -18 22 -6 0 -18 12 -26 28 l-13 27 -4 -33 c-3 -28 -6 -31
-18 -21 -9 8 -14 34 -15 83 l-1 71 -15 -60 c-8 -33 -17 -74 -20 -92 -6 -37
-19 -50 -61 -62 -26 -8 -31 -6 -35 11 -4 14 -12 19 -28 16 -16 -2 -27 4 -36
22 -11 23 -12 23 -19 5 -18 -51 -61 -54 -71 -4 -7 36 -33 28 -33 -11 0 -20 -5
-27 -17 -26 -13 1 -19 -8 -21 -31 -4 -38 -12 -41 -30 -12 -9 14 -19 18 -32 14
-13 -4 -20 -2 -20 7 0 8 -5 19 -12 26 -29 29 -37 109 -38 354 0 144 4 249 9
253 11 6 12 62 18 959 3 544 2 621 -12 642 -11 18 -16 66 -20 216 -3 106 -8
225 -10 263 -17 260 -17 337 -1 488 19 177 45 264 84 278 19 7 22 5 22 -19 0
-28 20 -82 30 -82 3 0 4 -19 3 -42 -2 -24 0 -37 3 -30 13 28 25 9 23 -38 -2
-27 0 -52 3 -56 16 -15 36 48 42 131 10 140 15 162 46 195 23 25 33 29 52 22
12 -5 34 -5 48 -1 14 4 41 7 60 7 19 0 28 -2 20 -4 -8 -3 -25 -25 -37 -49 -18
-38 -19 -45 -6 -45 8 0 17 8 20 18 10 41 94 53 91 13 -4 -50 2 -72 20 -69 9 1
28 -5 41 -14 21 -15 22 -18 7 -24 -9 -3 -28 -26 -42 -50 -24 -41 -26 -51 -21
-127 3 -45 8 -142 12 -216 3 -74 8 -138 10 -141 2 -3 7 -58 10 -121 3 -62 10
-141 15 -174 16 -111 23 -274 12 -287 -6 -8 -8 -43 -4 -93 l7 -80 54 3 c71 4
88 -2 70 -25 -13 -15 -8 -16 61 -8 41 4 95 9 120 11 171 13 444 56 519 80 25
8 57 12 76 8 49 -9 175 14 169 31 -4 9 7 15 35 20 21 3 41 12 43 18 2 7 1 123
-2 259 -4 179 -8 250 -17 260 -15 14 -17 222 -3 303 5 31 4 55 -2 62 -10 12
-12 248 -2 264 2 4 11 125 19 268 14 255 11 304 -16 337 -9 11 -7 14 10 14 11
0 21 6 21 14 0 20 27 27 40 10 7 -8 16 -14 21 -14 15 0 10 30 -5 36 -16 6 -18
44 -2 44 5 0 23 -11 40 -24 40 -30 71 -40 93 -28 15 9 14 12 -9 33 -31 30 -43
59 -23 59 16 0 21 16 6 22 -11 4 -25 48 -15 48 4 0 23 -10 41 -22z m-4440
-1340 c18 -13 33 -28 33 -35 0 -6 8 -18 18 -25 10 -7 28 -28 41 -45 22 -32 41
-43 41 -24 0 5 -7 17 -16 25 -13 14 -14 16 0 16 8 0 18 -4 21 -10 3 -5 14 -10
24 -10 10 0 24 -6 30 -14 23 -27 76 -33 385 -41 131 -4 270 -13 310 -20 39 -8
112 -17 161 -21 50 -3 99 -12 110 -17 11 -6 41 -12 66 -13 56 -3 142 -40 186
-81 7 -6 22 -15 33 -18 11 -3 20 -10 20 -15 0 -5 8 -11 19 -15 10 -3 32 -18
48 -33 17 -15 48 -42 69 -60 87 -72 104 -90 160 -167 33 -44 64 -89 71 -100
50 -83 71 -125 77 -160 4 -22 20 -65 35 -95 26 -50 30 -70 40 -225 9 -140 9
-183 -3 -244 -8 -40 -19 -78 -25 -84 -6 -6 -11 -25 -11 -42 0 -34 -19 -106
-46 -175 -9 -25 -29 -79 -43 -120 -21 -59 -32 -78 -54 -88 -16 -8 -36 -31 -48
-58 -12 -24 -24 -44 -28 -44 -4 0 -25 -35 -47 -77 -21 -43 -41 -80 -44 -83 -3
-3 -21 -27 -40 -55 -19 -27 -42 -59 -52 -69 -10 -11 -18 -26 -18 -33 0 -7 -5
-13 -10 -13 -6 0 -15 -11 -20 -25 -5 -14 -14 -25 -20 -25 -5 0 -10 -6 -10 -14
0 -15 -58 -66 -75 -66 -6 0 -18 -9 -28 -20 -9 -11 -29 -20 -43 -20 -18 0 -49
-20 -99 -65 -40 -36 -77 -65 -83 -65 -6 0 -12 -3 -14 -7 -6 -15 -67 -53 -84
-53 -23 0 -154 -61 -154 -71 0 -5 -6 -9 -13 -9 -7 0 -46 -20 -86 -45 -40 -25
-75 -45 -78 -45 -3 0 -16 -9 -30 -20 -14 -11 -38 -20 -53 -20 -15 0 -38 -8
-51 -17 -35 -26 -58 -40 -109 -67 -74 -38 -94 -50 -126 -73 -17 -12 -34 -20
-37 -16 -4 3 -4 -10 -2 -28 2 -19 7 -57 11 -85 3 -28 7 -176 8 -330 1 -220 4
-287 16 -318 12 -31 12 -40 3 -43 -9 -3 -13 -28 -13 -76 l1 -72 23 28 23 28 1
-112 c1 -100 0 -110 -13 -93 -8 10 -15 25 -15 32 0 6 -4 12 -9 12 -6 0 -7 -31
-4 -72 l5 -73 -28 -11 c-42 -15 -54 -7 -54 37 0 21 -4 39 -10 39 -5 0 -10 -18
-10 -40 0 -38 -19 -59 -21 -22 0 12 -2 13 -6 3 -3 -7 -14 -22 -24 -32 -19 -19
-20 -19 -25 11 -4 16 -13 35 -20 41 -12 9 -14 2 -14 -44 0 -46 -4 -58 -20 -67
-20 -10 -60 5 -60 22 0 5 -7 8 -16 8 -9 0 -22 7 -29 17 -13 18 -35 10 -35 -13
0 -8 -7 -14 -15 -14 -8 0 -15 -7 -15 -15 0 -8 -4 -15 -10 -15 -5 0 -10 9 -10
20 0 11 -4 20 -10 20 -5 0 -10 7 -10 15 0 9 -9 13 -27 11 -37 -4 -85 24 -102
60 -8 16 -17 31 -20 34 -4 3 -21 28 -39 55 -18 28 -43 63 -57 80 -14 16 -25
35 -25 42 0 7 -13 32 -30 55 -16 22 -30 49 -30 60 0 10 -10 23 -23 29 -12 5
-33 27 -47 47 -29 43 -67 82 -81 82 -5 0 -9 4 -9 9 0 5 18 1 40 -10 40 -19 80
-25 80 -11 0 8 -55 65 -85 88 l-20 15 20 -9 c11 -5 44 -21 74 -35 58 -28 73
-28 50 -1 -10 13 -11 18 -2 21 7 3 -1 16 -20 34 l-32 29 44 -15 c24 -8 49 -19
56 -25 6 -5 29 -13 50 -18 22 -5 48 -13 58 -17 13 -5 17 -2 17 13 0 12 4 23 8
26 13 8 15 243 3 251 -7 4 -11 57 -12 138 -1 86 -4 122 -9 102 -5 -16 -7 156
-4 384 2 228 4 519 4 646 l1 233 37 7 c20 4 39 10 42 15 3 4 3 120 0 257 -4
191 -8 254 -19 266 -10 13 -13 56 -11 194 2 98 2 234 2 302 -1 68 1 127 4 132
2 5 11 126 18 269 14 255 12 304 -15 336 -9 11 -7 14 10 14 11 0 21 6 21 14 0
20 27 27 40 10 7 -8 16 -14 21 -14 15 0 10 30 -5 36 -16 6 -18 44 -2 44 5 0
23 -11 40 -24 40 -30 71 -40 93 -28 15 9 14 12 -9 33 -31 30 -43 59 -23 59 16
0 21 16 6 22 -11 4 -25 48 -15 48 4 0 23 -10 41 -22z m-1384 -4652 c5 -8 10
-6 17 4 5 8 10 10 10 4 0 -7 25 -13 61 -16 64 -5 79 -15 79 -56 0 -34 -18 -62
-40 -62 -11 0 -20 -4 -20 -10 0 -14 -27 -12 -34 3 -5 10 -7 10 -12 0 -7 -15
-34 -17 -34 -3 0 6 -18 10 -40 10 -22 0 -40 -4 -40 -10 0 -5 -20 -10 -45 -10
-29 0 -45 4 -45 13 0 8 -3 9 -8 1 -4 -6 -19 -14 -34 -18 -16 -3 -28 -11 -28
-16 0 -6 -13 -10 -30 -10 -16 0 -30 5 -30 10 0 6 -7 10 -15 10 -8 0 -15 -4
-15 -9 0 -5 -23 -11 -51 -13 -28 -3 -54 -10 -58 -16 -3 -5 -23 -13 -43 -17
-35 -7 -37 -9 -43 -55 -4 -26 -4 -68 0 -93 4 -28 3 -47 -4 -51 -6 -4 -11 -14
-11 -22 0 -14 31 -15 257 -10 160 4 259 10 261 16 5 13 92 13 92 0 0 -5 7 -10
15 -10 8 0 15 5 15 10 0 6 9 10 20 10 26 0 27 -44 3 -95 -16 -33 -19 -35 -69
-35 -33 0 -58 -5 -68 -15 -18 -18 -46 -20 -46 -2 0 8 -3 8 -9 -2 -6 -10 -36
-16 -93 -19 -45 -3 -85 -8 -88 -13 -3 -4 -70 -10 -149 -13 -79 -3 -145 -7
-147 -9 -2 -1 1 -54 6 -116 8 -105 32 -191 52 -191 4 0 8 -4 8 -10 0 -17 34
-50 52 -50 10 0 18 -4 18 -10 0 -5 18 -10 40 -10 22 0 40 5 40 10 0 6 9 10 20
10 11 0 23 7 26 15 4 8 17 15 30 15 15 0 39 15 63 40 21 22 45 40 53 40 8 0
27 15 43 34 16 19 32 33 36 30 4 -2 10 9 14 26 4 16 13 30 21 30 8 0 20 11 26
25 16 36 56 34 64 -2 3 -16 8 -34 10 -42 7 -20 -46 -120 -66 -126 -9 -3 -27
-23 -39 -45 -12 -22 -28 -40 -34 -40 -7 0 -21 -13 -30 -30 -10 -16 -25 -30
-33 -30 -8 0 -14 -4 -14 -10 0 -5 -11 -12 -25 -16 -14 -3 -25 -10 -25 -15 0
-5 -7 -9 -15 -9 -8 0 -19 -9 -25 -20 -6 -11 -20 -20 -30 -20 -11 0 -20 -4 -20
-10 0 -15 -57 -12 -64 3 -5 10 -7 10 -12 0 -3 -7 -12 -13 -20 -13 -8 0 -14 -4
-14 -10 0 -18 -55 -11 -70 10 -8 11 -22 20 -31 20 -9 0 -26 9 -39 20 -13 11
-26 20 -29 20 -10 0 -59 83 -66 113 -4 15 -10 27 -14 27 -12 0 -45 181 -44
235 2 56 -15 135 -28 135 -5 0 -9 20 -9 45 0 25 4 45 9 45 17 0 35 65 36 125
0 33 4 77 9 98 8 36 8 37 -22 37 -34 0 -42 13 -42 70 0 27 6 42 18 49 12 7 13
10 3 11 -18 0 27 40 46 40 7 0 13 5 13 10 0 6 11 10 25 10 14 0 28 7 31 15 7
17 84 22 84 5 0 -5 9 -10 20 -10 11 0 20 5 20 10 0 6 14 10 30 10 18 0 33 6
36 15 7 17 44 21 44 5 0 -5 25 -10 55 -10 30 0 55 4 55 10 0 10 123 18 180 11
19 -2 38 -9 43 -15z m1007 -20 c0 -10 19 -16 60 -21 33 -4 60 -10 60 -15 0 -4
14 -10 30 -14 68 -13 113 -110 80 -171 -17 -31 -69 -44 -86 -21 -6 9 -28 20
-48 23 -20 3 -36 10 -36 14 0 14 -38 11 -43 -3 -4 -10 -8 -10 -15 1 -15 21
-174 28 -193 8 -8 -7 -34 -16 -58 -20 -24 -3 -47 -10 -50 -16 -4 -5 -30 -13
-58 -17 -39 -5 -54 -11 -58 -25 -4 -11 -12 -19 -20 -19 -18 0 -45 -28 -45 -47
0 -8 9 -17 19 -20 11 -3 22 -11 25 -19 3 -8 12 -14 21 -14 8 0 15 -4 15 -10 0
-5 11 -10 24 -10 14 0 31 -6 38 -13 7 -8 28 -16 46 -20 18 -4 39 -12 47 -19 8
-7 21 -19 29 -25 8 -7 36 -13 61 -13 28 0 52 -6 61 -15 9 -9 34 -15 60 -15 27
0 52 -6 60 -15 9 -8 26 -15 40 -15 13 0 24 -4 24 -10 0 -5 11 -10 25 -10 14 0
28 -7 31 -15 3 -8 21 -17 39 -21 20 -3 37 -15 45 -30 7 -13 21 -26 30 -29 31
-10 60 -86 60 -158 0 -36 -4 -69 -10 -72 -5 -3 -10 -15 -10 -26 0 -11 -7 -22
-16 -26 -9 -3 -30 -19 -46 -35 -16 -15 -35 -28 -43 -28 -8 0 -15 -4 -15 -9 0
-5 -13 -12 -30 -16 -16 -4 -30 -11 -30 -16 0 -5 -9 -9 -20 -9 -11 0 -23 -7
-26 -15 -7 -18 -40 -20 -47 -2 -4 8 -8 9 -14 1 -4 -6 -48 -14 -98 -18 -49 -4
-91 -12 -93 -17 -5 -12 -232 -12 -232 1 0 6 -7 10 -15 10 -8 0 -15 -4 -15 -10
0 -5 -11 -10 -25 -10 -14 0 -25 4 -25 9 0 5 -34 12 -75 16 -41 4 -75 11 -75
16 0 5 -12 9 -28 9 -18 0 -36 10 -52 28 -14 16 -37 32 -52 35 -15 4 -30 17
-34 30 -4 12 -12 25 -18 29 -6 4 -11 37 -10 81 0 64 3 76 25 98 13 13 35 25
49 26 14 1 26 7 28 13 6 16 30 12 52 -10 27 -27 29 -100 2 -100 -27 0 -45 -35
-30 -60 10 -16 24 -20 65 -20 29 0 53 -4 53 -9 0 -4 39 -11 87 -15 48 -3 90
-10 93 -15 7 -12 35 -15 133 -13 49 1 76 6 72 12 -3 6 -2 10 4 10 5 0 13 -4
16 -10 9 -15 34 -12 51 5 9 9 34 15 60 15 24 0 44 5 44 10 0 6 13 10 29 10 17
0 32 4 35 9 3 5 22 12 41 15 19 4 35 11 35 16 0 6 6 10 13 10 23 0 67 44 67
67 0 13 -8 24 -20 28 -11 3 -20 11 -20 16 0 5 -6 9 -14 9 -8 0 -22 7 -31 16
-8 9 -33 18 -55 21 -22 3 -40 10 -40 14 0 5 -8 9 -17 9 -10 0 -27 7 -37 15
-11 8 -39 15 -63 15 -24 0 -43 4 -43 9 0 5 -22 11 -50 15 -27 4 -50 11 -50 15
0 5 -19 12 -42 16 -24 4 -46 12 -49 17 -3 5 -16 10 -27 11 -12 1 -22 6 -22 13
0 6 -18 14 -41 18 -22 4 -47 12 -55 19 -49 40 -76 76 -91 123 -9 30 -20 54
-25 54 -4 0 -8 16 -8 35 0 19 5 35 10 35 6 0 10 10 10 21 0 25 50 109 65 109
6 0 18 9 28 20 9 11 24 20 32 20 8 0 15 4 15 9 0 4 19 11 42 14 24 3 44 11 46
16 2 6 10 11 18 11 8 0 14 4 14 9 0 5 27 12 60 16 33 4 60 10 60 15 0 4 35 10
77 14 48 4 83 12 92 21 19 19 41 19 41 1z m4140 0 c0 -10 19 -16 65 -21 36 -4
65 -11 65 -15 0 -4 12 -11 26 -14 64 -16 105 -112 74 -171 -17 -31 -69 -44
-86 -21 -6 9 -28 20 -48 23 -20 3 -36 10 -36 14 0 14 -38 11 -43 -3 -4 -10 -8
-10 -15 1 -15 21 -174 28 -193 8 -8 -7 -34 -16 -58 -20 -24 -3 -47 -10 -50
-16 -4 -5 -30 -13 -58 -17 -39 -5 -54 -11 -58 -25 -4 -11 -12 -19 -20 -19 -18
0 -45 -28 -45 -47 0 -8 9 -17 19 -20 11 -3 22 -11 25 -19 3 -8 12 -14 21 -14
8 0 15 -4 15 -10 0 -5 11 -10 24 -10 14 0 31 -6 38 -13 7 -8 28 -16 46 -20 18
-4 39 -12 47 -19 8 -7 21 -19 29 -25 8 -7 36 -13 61 -13 28 0 52 -6 61 -15 10
-9 34 -15 65 -15 30 0 48 -4 44 -10 -3 -5 12 -12 35 -16 22 -4 40 -10 40 -15
0 -5 11 -9 25 -9 14 0 28 -7 31 -15 3 -8 21 -17 39 -21 20 -3 37 -15 45 -30 7
-13 21 -26 30 -29 31 -10 60 -86 60 -158 0 -36 -4 -69 -10 -72 -5 -3 -10 -15
-10 -26 0 -11 -7 -22 -16 -26 -9 -3 -30 -19 -46 -35 -16 -15 -35 -28 -43 -28
-8 0 -15 -4 -15 -9 0 -5 -11 -12 -25 -15 -14 -4 -25 -11 -25 -16 0 -6 -11 -10
-25 -10 -14 0 -28 -7 -31 -15 -7 -18 -40 -20 -47 -2 -4 8 -8 9 -14 1 -4 -6
-48 -14 -98 -18 -49 -4 -91 -12 -93 -17 -5 -13 -242 -12 -242 1 0 6 -7 10 -16
10 -8 0 -12 -4 -9 -10 4 -6 -5 -10 -19 -10 -14 0 -26 4 -26 9 0 5 -34 12 -75
16 -41 4 -75 11 -75 16 0 5 -12 9 -28 9 -18 0 -36 10 -52 28 -14 16 -37 32
-52 35 -15 4 -30 17 -34 30 -4 12 -12 25 -18 29 -6 4 -11 37 -10 81 0 64 3 76
25 98 13 13 35 25 49 26 14 1 26 7 28 13 5 15 29 12 52 -7 27 -24 29 -103 2
-103 -27 0 -45 -35 -30 -60 10 -16 24 -20 65 -20 29 0 53 -4 53 -9 0 -4 39
-11 87 -15 48 -3 90 -12 94 -18 10 -16 188 -11 208 5 11 9 15 9 18 0 6 -18 31
-16 49 2 9 9 34 15 60 15 24 0 44 5 44 10 0 6 14 10 30 10 17 0 30 4 30 9 0 5
18 11 40 15 22 3 40 11 40 16 0 6 6 10 13 10 23 0 67 44 67 67 0 13 -8 24 -20
28 -11 3 -20 10 -20 15 0 5 -10 12 -22 16 -12 3 -28 13 -36 20 -7 8 -29 14
-48 14 -19 0 -34 5 -34 10 0 6 -9 10 -21 10 -11 0 -27 7 -35 15 -9 9 -34 15
-60 15 -24 0 -44 4 -44 9 0 4 -21 11 -46 14 -26 2 -49 10 -53 15 -4 6 -26 14
-49 18 -23 4 -42 10 -42 15 0 5 -11 9 -25 9 -15 0 -25 6 -25 14 0 8 -16 16
-41 20 -22 4 -47 12 -55 19 -49 40 -76 76 -91 123 -9 30 -20 54 -25 54 -4 0
-8 16 -8 35 0 19 5 35 10 35 6 0 10 10 10 21 0 25 50 109 65 109 6 0 18 9 28
20 9 11 24 20 32 20 8 0 15 4 15 9 0 4 19 11 42 14 24 3 44 11 46 16 2 6 10
11 18 11 8 0 14 4 14 10 0 5 27 12 60 16 33 4 60 10 60 14 0 4 35 10 77 14 48
4 83 12 92 21 19 19 41 19 41 1z m-3454 -10 c8 -8 14 -19 14 -25 0 -6 5 -11
10 -11 6 0 10 -13 10 -30 0 -16 -4 -30 -10 -30 -6 0 -10 -31 -10 -72 0 -40 -5
-102 -12 -138 -13 -75 -16 -141 -22 -447 -4 -191 -2 -222 11 -227 10 -4 13
-14 9 -30 -3 -14 -1 -28 4 -31 11 -7 8 -26 -12 -77 -18 -48 -50 -37 -81 26
-15 30 -27 60 -27 66 0 6 -9 20 -19 32 -19 20 -20 37 -19 387 1 201 -3 385 -7
409 -5 28 -4 42 3 42 6 0 13 14 17 30 4 17 11 30 16 30 5 0 9 16 9 35 0 19 8
44 18 54 20 23 77 27 98 7z m1674 -52 c0 -7 7 -14 15 -14 11 0 15 -11 15 -40
0 -22 5 -40 10 -40 6 0 10 -9 10 -20 0 -11 4 -20 10 -20 5 0 13 -18 16 -40 4
-22 12 -40 19 -40 6 0 18 -11 25 -25 7 -14 17 -25 22 -25 4 0 8 -5 8 -10 0 -6
19 -30 43 -53 23 -24 54 -58 68 -77 43 -56 105 -118 128 -125 12 -3 21 -11 21
-16 0 -16 27 -39 45 -39 8 0 18 -7 21 -15 3 -8 15 -17 27 -21 11 -3 31 -17 44
-30 13 -13 31 -24 39 -24 14 0 24 -6 59 -37 7 -7 18 -13 24 -13 17 0 26 130
35 536 2 100 7 191 10 202 4 11 18 23 31 26 14 4 25 11 25 16 0 6 7 10 15 10
8 0 15 -4 15 -9 0 -5 11 -12 24 -15 20 -5 23 -11 22 -48 0 -24 3 -79 7 -123 5
-53 4 -98 -5 -135 -6 -30 -13 -80 -15 -110 -4 -91 -16 -175 -24 -180 -4 -3 -9
-69 -12 -146 -2 -78 -8 -147 -12 -153 -11 -19 -7 -173 5 -206 9 -23 8 -31 -3
-40 -8 -5 -17 -21 -22 -34 -4 -13 -10 -19 -14 -13 -3 5 -17 12 -31 13 -23 4
-25 9 -33 84 -4 44 -12 82 -17 83 -6 2 -10 28 -10 58 0 48 -2 54 -20 54 -11 0
-23 7 -26 15 -4 8 -17 15 -30 15 -14 0 -27 7 -30 15 -4 9 -19 15 -40 15 -22 0
-37 6 -40 15 -4 8 -12 15 -20 15 -7 0 -27 13 -44 30 -17 16 -34 30 -38 30 -4
0 -15 9 -25 20 -9 11 -23 20 -31 20 -8 0 -17 8 -20 18 -10 29 -62 81 -90 88
-14 3 -26 10 -26 15 0 5 -7 9 -15 9 -8 0 -21 16 -29 35 -10 23 -22 35 -35 35
-11 0 -23 9 -27 22 -3 12 -13 28 -20 36 -8 7 -18 20 -22 29 -20 35 -33 1 -32
-81 3 -223 -13 -517 -33 -591 -11 -41 -17 -51 -38 -53 -14 -2 -35 6 -47 16
-18 16 -22 30 -22 76 0 31 5 56 10 56 15 0 12 50 -2 51 -10 0 -10 2 0 6 14 5
17 99 3 105 -4 2 -11 36 -13 76 -4 54 -2 77 8 87 17 17 18 49 2 75 -11 17 -10
22 0 29 10 6 14 74 19 285 l6 277 29 6 c15 3 28 10 28 16 0 5 11 -2 25 -17 14
-15 25 -34 25 -42z m-4980 26 c5 8 10 10 10 4 0 -6 23 -14 52 -16 29 -3 54
-11 56 -17 5 -14 32 -15 32 -1 0 19 17 10 28 -15 6 -14 18 -25 27 -25 8 0 15
-4 15 -10 0 -5 17 -12 37 -16 21 -4 44 -13 51 -21 7 -7 21 -13 31 -13 10 0 24
-11 31 -25 8 -14 24 -28 37 -31 13 -4 23 -10 23 -15 0 -5 7 -9 15 -9 9 0 18
-7 21 -15 4 -8 12 -15 20 -15 8 0 14 -4 14 -8 0 -5 14 -24 30 -42 17 -18 30
-28 30 -22 0 25 19 10 38 -30 11 -24 34 -58 51 -77 17 -19 31 -42 31 -52 0
-10 8 -20 19 -24 12 -3 20 -19 24 -43 10 -59 13 -71 20 -78 12 -12 8 -61 -8
-109 -16 -46 -82 -125 -104 -125 -7 0 -19 -7 -27 -15 -9 -8 -24 -15 -35 -15
-10 0 -19 -4 -19 -10 0 -5 -9 -10 -19 -10 -10 0 -21 -7 -25 -15 -3 -9 -19 -15
-41 -15 -19 0 -35 -4 -35 -9 0 -5 -38 -12 -85 -16 -47 -4 -85 -11 -85 -16 0
-5 -27 -9 -59 -9 -40 0 -65 -5 -75 -15 -17 -17 -46 -20 -46 -5 0 23 -30 8 -35
-17 -14 -70 -26 -100 -46 -122 -20 -21 -23 -22 -34 -7 -7 9 -18 16 -24 16 -8
0 -12 15 -11 43 1 23 1 48 1 55 -1 14 -31 17 -31 2 0 -16 -39 -11 -60 8 -10 9
-21 29 -25 43 -5 22 0 34 28 63 20 20 40 36 46 36 6 0 11 14 11 30 0 17 5 30
10 30 6 0 10 14 10 30 0 17 -4 30 -10 30 -5 0 -10 9 -10 20 0 11 5 20 10 20 6
0 10 25 10 55 0 30 -4 55 -10 55 -15 0 -12 48 3 53 17 5 16 259 -1 265 -7 2
-12 23 -12 52 0 27 -3 55 -6 64 -5 14 -8 14 -21 1 -19 -19 -87 -19 -107 0 -18
18 -31 94 -22 129 5 19 15 27 41 32 19 3 35 10 35 15 0 4 33 9 73 11 54 2 75
-1 85 -12 11 -13 14 -13 22 0z m4394 5 c17 -17 36 -20 36 -4 0 5 11 -1 24 -15
13 -15 26 -26 30 -26 4 0 16 -9 28 -19 16 -16 19 -27 14 -53 -12 -61 -29 -73
-102 -72 -45 1 -69 5 -75 15 -6 10 -11 11 -16 3 -10 -13 -77 -28 -115 -25 -19
2 -35 -6 -51 -23 -14 -14 -32 -26 -41 -26 -16 0 -25 -6 -60 -37 -8 -7 -25 -15
-39 -18 -14 -4 -28 -13 -31 -21 -3 -8 -12 -14 -21 -14 -8 0 -15 -5 -15 -10 0
-6 -8 -14 -17 -17 -10 -4 -31 -19 -46 -35 -16 -15 -34 -28 -40 -28 -7 0 -21
-12 -32 -26 -11 -14 -28 -34 -37 -45 -10 -10 -18 -22 -18 -25 0 -3 -6 -11 -12
-19 -35 -36 -50 -59 -51 -81 -1 -14 -7 -28 -13 -32 -5 -4 -16 -26 -22 -50 -11
-34 -11 -50 -1 -77 7 -19 17 -35 21 -35 4 0 8 -7 8 -15 0 -8 4 -15 9 -15 5 0
17 -7 26 -17 14 -14 42 -16 176 -17 112 -1 162 2 167 11 4 6 35 15 70 19 34 3
62 10 62 14 0 4 18 10 40 14 22 3 40 10 40 16 0 5 16 12 37 16 29 5 39 3 50
-11 12 -18 13 -17 13 6 0 14 9 35 20 46 11 12 15 23 10 25 -7 2 -14 94 -11
146 1 8 19 12 54 12 47 0 55 -3 67 -25 7 -14 19 -25 26 -25 16 0 54 -61 54
-86 0 -11 -10 -37 -21 -59 -19 -35 -20 -43 -9 -74 9 -26 10 -36 1 -39 -6 -2
-11 -10 -11 -17 0 -7 -5 -15 -12 -17 -15 -5 -14 -251 2 -256 14 -5 13 -49 -1
-54 -7 -2 -11 -34 -11 -83 1 -61 4 -80 16 -87 21 -12 21 -62 0 -82 -37 -37
-97 -5 -107 57 -8 47 -31 121 -39 128 -4 3 -9 17 -10 32 -1 15 -6 27 -10 27
-4 0 -4 32 -1 70 4 50 3 70 -6 70 -8 0 -9 5 -1 19 5 11 10 47 10 81 l0 61 -52
-7 c-29 -4 -57 -13 -61 -20 -4 -8 -19 -14 -32 -14 -14 0 -25 -4 -25 -9 0 -6
-20 -13 -45 -17 -25 -3 -45 -10 -45 -14 0 -4 -27 -10 -59 -14 -33 -4 -61 -11
-63 -17 -2 -5 -34 -11 -72 -13 -40 -2 -71 -8 -76 -15 -5 -10 -9 -9 -13 3 -5
12 -20 16 -62 16 -30 0 -55 5 -55 10 0 6 -13 10 -28 10 -16 0 -39 9 -52 20
-13 11 -28 20 -34 20 -17 0 -66 85 -73 127 -4 21 -13 44 -21 52 -9 9 -12 25
-8 43 3 17 1 38 -5 49 -12 24 4 84 25 92 7 3 19 26 27 51 7 25 17 46 22 46 12
0 37 27 37 39 0 6 4 11 10 11 5 0 14 18 20 40 6 22 17 40 24 40 8 0 16 9 19
21 3 12 10 18 16 15 5 -4 15 3 21 14 6 11 15 20 20 20 15 0 50 33 50 47 0 7 6
13 13 13 7 0 19 9 27 20 8 11 19 20 25 20 6 0 18 9 28 20 9 11 26 20 37 20 11
0 20 4 20 9 0 5 10 11 23 15 13 3 29 17 37 31 9 16 25 27 49 31 19 4 42 13 49
21 7 7 22 13 33 13 10 0 19 5 19 10 0 6 9 10 20 10 11 0 20 4 20 10 0 5 18 13
40 16 22 4 40 10 40 15 0 4 15 10 33 12 17 2 37 5 44 5 6 1 18 -5 27 -13z"/>
<path d="M4750 5115 c0 -558 2 -1015 6 -1015 3 0 37 31 77 68 40 38 86 77 102
88 70 44 148 123 270 270 22 26 59 69 83 95 23 25 42 49 42 52 0 4 27 43 60
88 33 44 60 85 60 91 0 6 12 22 26 37 38 37 132 185 140 218 4 15 12 35 19 43
7 8 18 32 25 53 6 20 16 37 21 37 5 0 9 6 9 13 0 7 9 30 20 52 74 144 72 375
-4 522 -68 133 -242 240 -426 264 -47 6 -96 12 -110 15 -35 6 -305 24 -367 24
l-53 0 0 -1015z"/>
<path d="M1498 2164 c-10 -10 2 -198 13 -202 11 -5 12 -32 1 -32 -10 0 -25
-244 -22 -330 2 -30 3 -65 4 -77 1 -22 3 -22 96 -16 58 4 100 11 108 20 8 8
36 13 72 13 32 0 60 5 62 11 2 5 24 13 48 16 25 4 51 12 58 20 7 7 22 13 33
13 10 0 19 4 19 9 0 5 9 13 21 16 28 9 59 41 59 61 0 26 -44 114 -56 114 -7 0
-17 13 -22 29 -5 15 -21 39 -34 52 -13 13 -27 32 -31 42 -3 9 -13 17 -22 17
-8 0 -15 5 -15 10 0 6 -7 10 -15 10 -8 0 -15 5 -15 10 0 13 -49 60 -62 60 -5
0 -16 7 -24 15 -9 8 -26 15 -40 15 -13 0 -24 5 -24 10 0 6 -7 10 -15 10 -8 0
-15 7 -15 15 0 9 -9 15 -25 15 -14 0 -25 4 -25 9 0 5 -15 12 -34 15 -19 4 -36
11 -38 16 -4 11 -52 23 -60 14z"/>
</g>
</svg>
